<?xml version="1.0" encoding="UTF-8" standalone="no"?>
<!-- Created with Inkscape (http://www.inkscape.org/) -->

<svg
   width="792.13281"
   height="312.42383"
   viewBox="0 0 209.58514 82.662137"
   version="1.1"
   id="svg1"
   xml:space="preserve"
   xmlns="http://www.w3.org/2000/svg"
   xmlns:svg="http://www.w3.org/2000/svg"><defs
     id="defs1" /><g
     id="layer3"
     transform="translate(-30.674097,-94.135598)"><path
       id="rect10-3"
       style="fill:#ff49a9;fill-opacity:1;stroke:none;stroke-width:0.707001"
       d="m 75.37783,94.135597 c -1.111743,0 -2.006596,0.895369 -2.006596,2.007112 v 78.648431 c 0,1.11174 0.894853,2.0066 2.006596,2.0066 h 34.78392 c 1.11174,0 2.00659,-0.89486 2.00659,-2.0066 V 96.142709 c 0,-1.111743 -0.89485,-2.007112 -2.00659,-2.007112 z m 42.69661,0 c -1.11174,0 -2.00659,0.895369 -2.00659,2.007112 v 35.452621 c 0,1.11174 0.89485,2.00659 2.00659,2.00659 h 34.78393 c 1.11174,0 2.00659,-0.89485 2.00659,-2.00659 V 96.142709 c 0,-1.111743 -0.89485,-2.007112 -2.00659,-2.007112 z m 42.69714,0 c -1.11174,0 -2.0066,0.895369 -2.0066,2.007112 v 78.648431 c 0,1.11174 0.89486,2.0066 2.0066,2.0066 h 34.78392 c 1.11175,0 2.0066,-0.89486 2.0066,-2.0066 V 96.142709 c 0,-1.111743 -0.89485,-2.007112 -2.0066,-2.007112 z m 42.69713,0 c -1.11174,0 -2.00711,0.895369 -2.00711,2.007112 v 35.452621 c 0,1.11174 0.89537,2.00659 2.00711,2.00659 h 34.78341 c 1.11174,0 2.00711,-0.89485 2.00711,-2.00659 V 96.142709 c 0,-1.111743 -0.89537,-2.007112 -2.00711,-2.007112 z M 32.680695,137.33141 c -1.111744,0 -2.006596,0.89537 -2.006596,2.00712 v 35.45261 c 0,1.11174 0.894852,2.0066 2.006596,2.0066 h 34.783923 c 1.111743,0 2.006596,-0.89486 2.006596,-2.0066 v -35.45261 c 0,-1.11175 -0.894853,-2.00712 -2.006596,-2.00712 z" /></g></svg>
